<svg width="14" height="14" viewBox="0 0 14 14" fill="none" xmlns="http://www.w3.org/2000/svg">
<g clip-path="url(#clip0_220_305)">
<path d="M12.4688 9.1875C12.0645 9.1875 11.375 8.84975 11.375 7.6825V5.89925C11.3751 5.80934 11.3567 5.72036 11.3209 5.63785C11.2852 5.55535 11.2329 5.48106 11.1673 5.41961C11.1016 5.35815 11.0241 5.31085 10.9394 5.28062C10.8547 5.25039 10.7647 5.23788 10.675 5.24388C10.2425 5.27309 9.80947 5.19474 9.41462 5.01582C9.01976 4.8369 8.67537 4.56297 8.41219 4.21851C8.14901 3.87404 7.97523 3.46976 7.90638 3.04176C7.83753 2.61376 7.87575 2.17538 8.01762 1.76575C8.04975 1.67245 8.06042 1.57311 8.04885 1.47512C8.03728 1.37713 8.00376 1.28301 7.95078 1.19976C7.89781 1.11652 7.82674 1.04629 7.74288 0.994301C7.65901 0.942315 7.5645 0.909911 7.46637 0.8995C7.31145 0.883186 7.15578 0.875008 7 0.875C4.29363 0.875 2.625 3.20688 2.625 5.60438V7.6825C2.625 8.84975 1.9355 9.1875 1.53125 9.1875C1.3572 9.1875 1.19028 9.25664 1.06721 9.37971C0.94414 9.50278 0.875 9.6697 0.875 9.84375C0.875 10.0178 0.94414 10.1847 1.06721 10.3078C1.19028 10.4309 1.3572 10.5 1.53125 10.5H12.4688C12.6428 10.5 12.8097 10.4309 12.9328 10.3078C13.0559 10.1847 13.125 10.0178 13.125 9.84375C13.125 9.6697 13.0559 9.50278 12.9328 9.37971C12.8097 9.25664 12.6428 9.1875 12.4688 9.1875Z" fill="#009917"/>
<path d="M10.4999 4.375C10.9641 4.375 11.4092 4.19063 11.7374 3.86244C12.0656 3.53425 12.2499 3.08913 12.2499 2.625C12.2499 2.16087 12.0656 1.71575 11.7374 1.38756C11.4092 1.05937 10.9641 0.875 10.4999 0.875C10.0358 0.875 9.59068 1.05937 9.26249 1.38756C8.9343 1.71575 8.74993 2.16087 8.74993 2.625C8.74993 3.08913 8.9343 3.53425 9.26249 3.86244C9.59068 4.19063 10.0358 4.375 10.4999 4.375ZM6.03568 11.263C5.94795 11.1126 5.80409 11.0033 5.63573 10.9589C5.46737 10.9146 5.2883 10.939 5.13793 11.0268C4.98755 11.1145 4.87818 11.2583 4.83387 11.4267C4.78956 11.5951 4.81396 11.7741 4.90168 11.9245C5.11597 12.2905 5.42249 12.594 5.79065 12.8047C6.15881 13.0153 6.57576 13.1258 6.99993 13.125C7.89505 13.125 8.67818 12.6438 9.09818 11.9245C9.1859 11.7741 9.21029 11.5951 9.16598 11.4267C9.12168 11.2583 9.0123 11.1145 8.86193 11.0268C8.71155 10.939 8.53248 10.9146 8.36412 10.9589C8.19576 11.0033 8.0519 11.1126 7.96418 11.263C7.77255 11.5903 7.41293 11.8125 6.99993 11.8125C6.58605 11.8125 6.2273 11.5903 6.03568 11.263Z" fill="#009917"/>
</g>
<defs>
<clipPath id="clip0_220_305">
<rect width="14" height="14" fill="white"/>
</clipPath>
</defs>
</svg>
