<svg width="82" height="60" viewBox="0 0 82 60" fill="none" xmlns="http://www.w3.org/2000/svg">
<path d="M5.60961 55.3814C7.285 58.4884 10.8408 59.8222 10.8408 59.8222C10.8408 59.8222 11.6802 56.1185 10.0048 53.0114C8.32944 49.9043 4.77365 48.5705 4.77365 48.5705C4.77365 48.5705 3.93421 52.2743 5.60961 55.3814Z" fill="#444444"/>
<path d="M6.76397 54.3589C9.78874 56.1787 10.9537 59.7933 10.9537 59.7933C10.9537 59.7933 7.21448 60.4575 4.18971 58.6377C1.16494 56.8179 0 53.2032 0 53.2032C0 53.2032 3.73919 52.5391 6.76397 54.3589Z" fill="#CB7640"/>
<path d="M75.117 2.42618H56.2445V2.69578H75.117V2.42618Z" fill="#F1F1F1"/>
<path d="M61.6394 0H61.3698V2.49386H61.6394V0Z" fill="#F1F1F1"/>
<path d="M69.8608 0H69.5912V2.49386H69.8608V0Z" fill="#F1F1F1"/>
<path d="M81.0479 34.9139H62.1754V35.1835H81.0479V34.9139Z" fill="#F1F1F1"/>
<path d="M67.572 32.4878H67.3024V34.9817H67.572V32.4878Z" fill="#F1F1F1"/>
<path d="M75.7907 32.4878H75.5211V34.9817H75.7907V32.4878Z" fill="#F1F1F1"/>
<path d="M48.8052 53.9585H16.8856V53.7289H48.5755V42.5914H19.569L18.1599 39.6558L18.367 39.5565L19.7135 42.3617H48.8052V53.9585Z" fill="#444444"/>
<path d="M21.1384 59.5846C22.47 59.5846 23.5496 58.5051 23.5496 57.1734C23.5496 55.8418 22.47 54.7622 21.1384 54.7622C19.8067 54.7622 18.7272 55.8418 18.7272 57.1734C18.7272 58.5051 19.8067 59.5846 21.1384 59.5846Z" fill="#CB7640"/>
<path d="M44.9008 59.5846C46.2325 59.5846 47.312 58.5051 47.312 57.1734C47.312 55.8418 46.2325 54.7622 44.9008 54.7622C43.5691 54.7622 42.4896 55.8418 42.4896 57.1734C42.4896 58.5051 43.5691 59.5846 44.9008 59.5846Z" fill="#CB7640"/>
<path d="M72.9194 7.45727C73.7438 7.45727 74.412 6.78899 74.412 5.96463C74.412 5.14027 73.7438 4.47198 72.9194 4.47198C72.095 4.47198 71.4268 5.14027 71.4268 5.96463C71.4268 6.78899 72.095 7.45727 72.9194 7.45727Z" fill="#CB7640"/>
<path d="M52.2181 38.8023H16.3404L8.57727 13.4274H60.2129L60.1659 13.5767L52.2181 38.8023ZM16.5102 38.5727H52.0497L59.8998 13.657H8.88764L16.5102 38.5727Z" fill="#444444"/>
<path d="M49.4202 37.4819H17.9075L11.0889 14.9774H56.4423L56.401 15.1099L49.4202 37.4819Z" fill="#F1F1F1"/>
<path d="M60.8594 11.1605L60.6373 11.1015L62.1527 5.39006H70.9673V5.61976H62.3294L60.8594 11.1605Z" fill="#444444"/>
<path d="M57.6353 21.1207H11.0886V21.3503H57.6353V21.1207Z" fill="#444444"/>
<path d="M54.9672 29.5806H13.6744V29.8103H54.9672V29.5806Z" fill="#444444"/>
<path d="M34.5142 13.5424H34.2845V38.6877H34.5142V13.5424Z" fill="#444444"/>
<path d="M44.7955 13.5355L43.1471 38.6802L43.3763 38.6952L45.0247 13.5506L44.7955 13.5355Z" fill="#444444"/>
<path d="M24.0075 13.5351L23.7783 13.55L25.4172 38.6953L25.6464 38.6803L24.0075 13.5351Z" fill="#444444"/>
<path d="M75.4899 59.7304H0V60H75.4899V59.7304Z" fill="#444444"/>
<path d="M26.9952 6.8752H8.12268V7.14481H26.9952V6.8752Z" fill="#F1F1F1"/>
<path d="M13.5152 4.44823H13.2456V6.94209H13.5152V4.44823Z" fill="#F1F1F1"/>
<path d="M21.737 4.44823H21.4674V6.94209H21.737V4.44823Z" fill="#F1F1F1"/>
</svg>
