<svg width="10" height="10" viewBox="0 0 10 10" fill="none" xmlns="http://www.w3.org/2000/svg">
<g clip-path="url(#clip0_306_302)">
<path d="M5.49427 0.0158691C4.02041 0.0158691 2.65826 0.737605 1.823 1.90973C2.03467 1.96952 2.22887 2.0824 2.38889 2.24227L2.52647 2.37986C3.20627 1.43968 4.30556 0.861745 5.49427 0.861745C7.51233 0.861745 9.15414 2.50359 9.15414 4.52167C9.15414 5.71631 8.57793 6.81198 7.63693 7.49032L7.74319 7.59658C7.91427 7.76777 8.0317 7.97912 8.08764 8.20742C9.27227 7.37505 10 6.01097 10 4.52167C10 2.03716 7.97876 0.0158691 5.49427 0.0158691Z" fill="#CB7640"/>
<path d="M6.1274 7.0226C6.0069 6.90211 5.84213 6.84176 5.66905 6.85915C5.36345 6.89003 5.07679 7.00767 4.84006 7.19939C4.8076 7.22593 4.76562 7.24075 4.72243 7.24075C4.68013 7.24075 4.6388 7.22637 4.60605 7.2003C3.93611 6.66104 3.32396 6.04848 2.78598 5.37918C2.73103 5.31134 2.73121 5.21234 2.78677 5.14421C2.97797 4.90809 3.09546 4.6216 3.12623 4.31618C3.14332 4.14593 3.08373 3.97882 2.96277 3.85775L1.86806 2.76315C1.76078 2.65599 1.61827 2.59692 1.46683 2.59692C1.44857 2.59692 1.42981 2.59783 1.41117 2.59964C1.0527 2.63478 0.714258 2.79506 0.458454 3.05093C-0.0334082 3.54288 -0.142205 4.30979 0.193928 4.91599C1.0501 6.47786 3.10914 8.72906 5.07355 9.79381C5.30185 9.91836 5.56072 9.98407 5.82253 9.98407C6.2387 9.98407 6.64396 9.81749 6.93445 9.52701C7.19028 9.27109 7.35062 8.93262 7.38577 8.574C7.40245 8.40444 7.3428 8.23798 7.22216 8.11723L6.1274 7.0226Z" fill="#CB7640"/>
<path d="M5.66961 1.53638C5.50852 1.53638 5.37793 1.66696 5.37793 1.82806V4.21984C5.37793 4.38094 5.50852 4.51153 5.66961 4.51153H7.89984C8.0609 4.51153 8.19152 4.38094 8.19152 4.21984C8.19152 4.05875 8.0609 3.92816 7.89984 3.92816H5.96129V1.82806C5.96129 1.66696 5.83068 1.53638 5.66961 1.53638Z" fill="#CB7640"/>
</g>
<defs>
<clipPath id="clip0_306_302">
<rect width="10" height="10" fill="white"/>
</clipPath>
</defs>
</svg>
