<svg width="200" height="200" viewBox="0 0 200 200" fill="none" xmlns="http://www.w3.org/2000/svg">
<rect x="1" y="1" width="198" height="198" rx="9" stroke="#CB7640" stroke-width="2"/>
<path d="M86.667 103.334L102.561 116.049C102.989 116.391 103.613 116.326 103.96 115.901L133.334 80.0002" stroke="#CB7640" stroke-opacity="0.4" stroke-width="4" stroke-linecap="round"/>
<path fill-rule="evenodd" clip-rule="evenodd" d="M92.1949 104.131L111.161 80.9499C111.686 80.3087 111.591 79.3637 110.95 78.8391C110.309 78.3145 109.364 78.409 108.839 79.0502L89.8902 102.21L92.1949 104.131ZM89.0286 108L86.7239 106.08L79.7496 114.604L67.5667 105.467C66.9039 104.97 65.9637 105.104 65.4667 105.767C64.9696 106.429 65.1039 107.37 65.7667 107.867L78.3331 117.292C79.4048 118.095 80.9196 117.911 81.768 116.875L89.0286 108Z" fill="#CB7640"/>
</svg>
