<?xml version="1.0" standalone="no"?>
<!DOCTYPE svg PUBLIC "-//W3C//DTD SVG 20010904//EN"
 "http://www.w3.org/TR/2001/REC-SVG-20010904/DTD/svg10.dtd">
<svg version="1.0" xmlns="http://www.w3.org/2000/svg"
 width="26" height="26"  viewBox="0 0 740.000000 740.000000"
 preserveAspectRatio="xMidYMid meet">

<g transform="translate(0.000000,740.000000) scale(0.100000,-0.100000)"
fill="#CB7640" stroke="#CB7640">
<path stroke="#CB7640" d="M2802 6301 c-50 -82 -36 -205 31 -278 l20 -23 -23 -25 c-28 -29 -28
-27 0 -368 11 -133 20 -249 20 -259 0 -12 -14 -17 -62 -23 -258 -26 -473 -73
-525 -113 -20 -16 -22 -30 -31 -207 -10 -203 -7 -223 35 -267 25 -26 25 -27
18 -155 -7 -146 -7 -221 0 -419 l6 -142 -37 -6 c-20 -4 -37 -6 -38 -4 -35 60
-66 91 -112 114 -55 27 -64 38 -64 82 0 67 -87 188 -129 180 -29 -6 -18 -45
18 -70 34 -23 74 -87 87 -140 5 -25 3 -28 -18 -28 -13 0 -48 -12 -76 -26 -53
-26 -93 -76 -107 -135 -6 -23 -14 -28 -66 -36 -56 -9 -60 -8 -64 11 -2 12 -11
118 -20 236 -25 334 -24 328 -58 367 -25 29 -29 38 -20 53 19 29 25 85 15 124
-14 48 -94 186 -107 183 -21 -6 -45 -73 -45 -127 0 -73 13 -116 50 -161 l30
-38 -25 -25 c-14 -14 -25 -34 -25 -44 0 -22 36 -475 45 -564 l6 -56 -80 -27
c-44 -14 -95 -36 -113 -49 l-33 -22 -7 -194 c-14 -431 -15 -393 16 -435 15
-20 43 -44 62 -52 l34 -17 0 -215 c0 -162 -4 -228 -15 -265 -19 -63 -19 -132
0 -186 10 -29 15 -82 15 -170 0 -141 1 -140 -73 -140 -34 0 -61 -13 -104 -51
-18 -15 -58 -36 -89 -46 -58 -18 -60 -20 -138 -128 -50 -69 -59 -104 -50 -191
6 -54 14 -73 55 -131 65 -93 83 -109 133 -122 24 -6 67 -28 96 -50 41 -31 64
-41 111 -46 39 -5 73 -17 106 -38 37 -23 64 -32 118 -37 42 -3 87 -15 112 -28
30 -16 60 -22 105 -22 47 0 76 -7 113 -25 39 -19 66 -24 122 -25 49 0 86 -6
119 -21 39 -16 60 -19 109 -14 48 5 70 3 114 -15 44 -17 66 -20 120 -14 51 5
76 2 106 -11 31 -13 56 -15 115 -10 57 4 86 2 120 -10 34 -12 63 -15 116 -10
50 5 86 2 120 -8 38 -11 63 -12 111 -4 48 7 76 6 120 -4 43 -11 73 -12 117 -5
41 7 76 6 117 -3 46 -9 72 -9 118 0 48 10 70 10 115 -1 44 -10 63 -11 100 0
30 8 70 10 125 5 54 -5 96 -3 130 6 38 9 64 10 108 2 46 -8 68 -7 107 4 35 11
71 13 125 8 58 -5 87 -2 121 10 33 12 62 14 112 9 53 -5 78 -3 114 11 35 13
61 16 109 11 51 -5 74 -2 120 15 45 17 68 19 115 14 47 -5 67 -3 105 14 33 15
68 21 117 21 51 0 84 6 128 25 42 18 78 25 121 25 46 0 71 6 98 22 25 16 59
25 108 29 55 4 82 12 113 33 23 15 69 32 110 40 52 10 81 22 116 49 25 20 70
43 100 52 31 9 60 25 69 38 8 12 35 49 59 82 49 68 61 116 51 204 -5 46 -15
71 -45 112 -75 105 -90 119 -137 131 -25 6 -65 26 -88 43 -58 45 -79 55 -112
55 -15 0 -38 3 -51 6 -23 7 -23 7 -20 153 2 80 10 172 18 204 13 52 12 65 -3
125 -14 54 -17 111 -17 292 l0 225 35 22 c19 13 47 41 61 63 26 39 26 43 25
192 -1 217 -12 381 -25 397 -14 19 -126 71 -150 71 -18 0 -19 6 -13 88 14 194
37 470 42 513 5 41 2 51 -21 78 l-27 32 21 22 c67 74 81 204 31 286 l-21 34
-30 -54 c-68 -119 -78 -143 -78 -186 0 -24 7 -58 16 -75 15 -30 15 -31 -17
-64 l-32 -33 -23 -283 c-13 -156 -23 -289 -24 -295 0 -16 -24 -16 -87 -3 l-48
11 0 58 c0 83 -40 145 -117 185 l-57 29 19 37 c24 48 70 93 109 109 34 14 46
37 31 56 -15 18 -42 8 -91 -33 -40 -34 -89 -118 -89 -153 0 -11 -12 -19 -37
-24 -92 -17 -163 -87 -178 -176 -7 -42 -14 -45 -75 -33 l-32 7 7 151 c8 188 8
240 0 395 l-7 124 28 22 29 23 3 144 c1 78 -1 183 -5 232 l-8 90 -48 24 c-79
39 -319 82 -594 107 l-73 7 0 32 c0 17 10 152 21 299 l22 268 -27 28 c-25 26
-26 29 -10 42 58 48 84 207 46 279 -23 41 -38 48 -47 21 -3 -11 -25 -53 -48
-92 -34 -59 -41 -81 -41 -124 0 -32 6 -62 16 -76 16 -23 15 -25 -17 -59 l-34
-35 -22 -287 -23 -287 -126 6 c-69 3 -126 7 -128 8 -2 2 7 191 24 471 5 98 5
102 -20 131 l-26 31 20 25 c54 69 67 186 29 264 -11 24 -24 43 -27 43 -4 0
-28 -40 -54 -89 -40 -74 -48 -98 -48 -143 0 -32 6 -62 16 -76 14 -20 13 -24
-15 -60 l-31 -38 -15 -273 c-8 -151 -16 -275 -17 -276 -2 -2 -99 -5 -216 -7
-206 -3 -213 -2 -217 17 -2 11 -9 137 -16 279 l-12 259 -30 34 -30 34 18 39
c21 48 17 112 -13 167 -11 21 -31 58 -43 83 -13 25 -25 47 -27 50 -8 12 -43
-50 -53 -97 -16 -68 0 -145 41 -201 l28 -39 -26 -26 -25 -26 14 -288 c9 -158
14 -290 13 -292 -2 -1 -59 -5 -127 -8 l-125 -6 -6 74 c-4 41 -15 172 -25 292
l-17 217 -33 34 c-32 33 -33 34 -16 60 30 45 17 128 -33 211 -23 39 -46 77
-50 85 -7 12 -13 8 -30 -19z m99 -169 c9 -30 9 -48 -1 -76 -14 -42 -19 -44
-48 -13 -46 49 -69 167 -41 219 10 19 13 16 44 -36 19 -30 39 -73 46 -94z
m419 49 c23 -46 26 -118 6 -146 -12 -17 -16 -18 -32 -5 -45 38 -69 160 -44
226 l11 28 19 -32 c10 -17 28 -49 40 -71z m725 -1 c0 -53 -5 -74 -28 -112 -15
-27 -34 -48 -42 -48 -19 0 -38 65 -31 103 3 17 22 60 42 95 33 58 38 63 48 46
6 -10 11 -48 11 -84z m442 -12 c-6 -51 -36 -116 -62 -138 -15 -12 -19 -12 -32
5 -24 32 -11 103 32 181 l39 69 14 -35 c9 -22 12 -52 9 -82z m-1579 -221 l22
-24 -42 -48 c-37 -41 -43 -45 -49 -29 -13 34 -9 87 8 106 21 24 35 23 61 -5z
m431 -1 l23 -25 -45 -48 -45 -47 -7 47 c-7 42 -5 51 16 73 28 30 30 30 58 0z
m665 5 c13 -14 16 -33 14 -72 l-3 -54 -42 44 c-48 49 -50 57 -26 83 21 23 36
23 57 -1z m430 0 c17 -16 20 -29 17 -71 l-3 -52 -35 34 c-54 52 -60 68 -32 89
30 23 28 23 53 0z m-1503 -144 c-9 -15 -28 -40 -44 -55 -23 -22 -29 -24 -37
-12 -18 29 -10 51 38 98 46 46 47 47 53 22 3 -14 -1 -37 -10 -53z m430 0 c-9
-16 -32 -43 -51 -60 l-35 -31 -3 37 c-3 34 2 42 45 81 45 41 48 43 54 23 3
-12 -1 -35 -10 -50z m587 45 c15 -15 37 -35 50 -44 20 -14 22 -21 16 -54 l-7
-37 -48 51 c-37 38 -49 58 -49 81 0 38 5 38 38 3z m450 -15 c32 -32 42 -51 42
-75 0 -18 -4 -32 -9 -32 -5 0 -28 21 -50 46 -28 32 -41 56 -41 75 0 16 4 29 8
29 4 0 27 -19 50 -43z m-1443 -111 c10 -63 5 -76 -45 -114 l-45 -34 -6 23
c-17 58 -10 82 34 125 23 22 45 42 49 42 4 1 10 -18 13 -42z m427 -12 c2 -35
-2 -64 -9 -75 -14 -19 -82 -64 -88 -58 -2 2 -5 26 -6 52 -3 45 0 50 41 91 25
24 48 44 52 44 3 1 8 -23 10 -54z m628 -81 c0 -57 -1 -58 -33 -42 -67 35 -86
73 -71 147 l6 31 49 -42 c46 -40 48 -44 49 -94z m381 93 c46 -41 47 -44 42
-89 -7 -56 -19 -59 -68 -16 -33 29 -35 35 -35 90 0 32 3 59 8 59 4 -1 28 -20
53 -44z m-1423 -167 c-2 -26 -12 -40 -46 -63 -36 -26 -45 -28 -52 -16 -14 23
-12 80 3 80 7 0 28 11 47 24 41 28 53 22 48 -25z m422 12 c0 -33 -6 -44 -37
-70 -45 -37 -59 -39 -67 -8 -11 43 -6 57 27 70 17 8 38 21 46 30 22 27 31 20
31 -22z m610 -62 c0 -46 -11 -49 -63 -14 -33 23 -37 30 -37 70 l0 44 50 -31
c46 -28 50 -34 50 -69z m349 87 c6 -8 25 -19 41 -26 27 -11 30 -17 30 -56 0
-48 -1 -49 -33 -33 -47 24 -67 51 -67 91 0 40 10 48 29 24z m-1369 -166 c-1
-37 -22 -60 -73 -79 -22 -9 -25 -7 -31 21 -11 56 -7 65 42 90 53 28 62 23 62
-32z m419 -7 c1 -28 -5 -36 -42 -58 -61 -35 -67 -33 -67 24 0 44 3 50 28 59
15 6 36 17 47 25 18 14 21 14 27 -1 4 -9 7 -31 7 -49z m537 42 c20 -14 43 -25
50 -25 9 0 14 -12 14 -37 0 -68 -19 -74 -82 -31 -24 17 -28 26 -28 69 0 27 2
49 5 49 2 0 21 -11 41 -25z m435 -4 l46 -24 -5 -46 c-2 -25 -6 -48 -8 -50 -1
-2 -22 8 -46 21 -41 22 -43 25 -46 77 -2 29 1 51 5 49 4 -2 29 -14 54 -27z
m-1381 -146 l0 -45 -55 0 c-47 0 -55 3 -55 19 0 12 16 27 48 44 26 13 50 25
55 26 4 0 7 -19 7 -44z m1373 17 c26 -13 47 -25 47 -27 0 -25 -17 -35 -61 -35
l-49 0 0 46 c0 25 3 44 8 42 4 -2 28 -14 55 -26z m-963 -24 l0 -43 -50 0 c-44
0 -50 2 -50 20 0 15 13 28 43 42 23 12 45 22 50 22 4 1 7 -18 7 -41z m548 17
c30 -13 42 -24 42 -39 0 -19 -6 -21 -55 -21 -53 0 -55 1 -55 27 0 31 10 60 19
55 3 -2 25 -12 49 -22z m-89 -27 c-2 -27 -12 -54 -26 -71 -36 -45 -32 -50 50
-62 48 -7 153 10 163 27 3 5 -2 22 -12 36 -13 19 -18 40 -16 71 3 39 5 42 25
37 12 -3 68 -6 125 -6 l102 0 0 -40 c0 -22 -6 -42 -14 -47 -7 -4 -18 -18 -25
-31 -11 -20 -9 -23 14 -32 34 -13 130 -13 178 1 39 10 47 28 22 49 -8 7 -15
28 -15 46 0 34 0 34 48 34 199 0 636 -86 649 -127 15 -45 -272 -104 -677 -140
-251 -22 -1161 -25 -1430 -5 -408 31 -750 95 -750 141 0 14 63 40 145 61 107
27 429 72 440 62 11 -12 4 -45 -15 -69 -11 -14 -20 -29 -20 -33 0 -13 78 -30
139 -30 94 0 125 25 81 65 -12 11 -20 31 -20 50 l0 32 77 7 c42 3 98 6 125 6
l48 0 0 -41 c0 -26 -7 -50 -20 -67 l-21 -26 23 -12 c36 -19 130 -27 176 -14
47 12 55 35 22 65 -14 13 -20 31 -20 62 l0 43 216 0 216 0 -3 -42z m-847 -75
c20 -18 20 -18 -14 -25 -37 -8 -126 0 -134 13 -2 4 8 15 23 24 35 19 97 13
125 -12z m1384 11 c19 -9 32 -20 29 -24 -13 -21 -165 -21 -165 0 0 10 61 39
83 40 11 0 34 -7 53 -16z m-978 -10 c12 -8 20 -20 17 -25 -7 -11 -121 -11
-149 0 -18 7 -18 8 5 24 30 21 98 22 127 1z m578 2 c10 -8 16 -18 11 -22 -10
-11 -122 -18 -144 -9 -16 6 -16 8 6 26 28 23 98 26 127 5z m-1536 -144 c630
-136 2226 -112 2624 39 28 10 51 18 52 16 1 -1 4 -81 7 -178 6 -200 1 -222
-50 -227 -27 -3 -42 6 -92 52 -124 114 -159 115 -317 8 -45 -31 -54 -33 -109
-29 -42 2 -89 16 -156 45 -166 72 -213 67 -422 -41 -117 -61 -119 -62 -200
-62 -79 0 -86 2 -192 55 -107 53 -112 55 -195 55 -82 0 -89 -2 -196 -52 -201
-94 -231 -93 -398 16 -136 88 -204 89 -352 5 -95 -54 -115 -60 -155 -44 -62
26 -66 60 -43 331 l6 66 46 -17 c26 -10 90 -27 142 -38z m-905 -296 c28 -56
33 -122 10 -152 -14 -18 -15 -18 -40 11 -47 56 -68 180 -38 228 7 12 36 -24
68 -87z m4409 78 c3 -9 6 -41 6 -72 0 -62 -24 -125 -58 -156 -22 -19 -22 -19
-37 18 -19 46 -8 96 39 173 33 56 41 62 50 37z m-1046 -46 c17 -11 32 -22 32
-24 0 -3 -11 -20 -24 -37 -12 -18 -26 -39 -30 -47 -10 -19 40 34 53 57 9 17
11 17 32 -4 20 -20 21 -22 5 -44 -23 -34 -20 -46 5 -15 19 25 22 25 50 11 29
-15 29 -16 12 -43 -17 -27 -17 -27 3 -9 11 9 24 17 27 17 4 0 7 -47 7 -105 l0
-105 -31 -19 c-63 -39 -321 -87 -589 -110 -509 -45 -1220 -38 -1680 15 -168
19 -371 59 -427 84 l-43 19 0 125 0 126 25 0 c25 0 33 -14 15 -25 -5 -3 -15
-16 -20 -28 -6 -12 6 -3 27 20 35 38 146 113 167 113 5 0 -14 -24 -43 -54 -28
-30 -51 -58 -51 -63 0 -4 33 27 73 70 66 70 76 77 111 77 43 0 46 7 -28 -83
-22 -26 -37 -49 -35 -52 3 -2 27 24 54 58 27 34 52 66 55 70 4 4 19 3 34 -3
l28 -10 -35 -48 c-18 -26 -37 -54 -41 -62 -11 -22 42 40 62 73 9 15 20 27 24
27 4 0 43 -23 87 -52 l81 -52 -27 -28 c-15 -15 -24 -30 -21 -33 3 -4 15 7 27
24 21 29 23 30 90 24 50 -4 82 -1 117 11 63 21 71 20 48 -6 -47 -54 -42 -58 7
-6 30 31 78 68 107 82 54 27 67 23 31 -10 -12 -10 -40 -41 -62 -69 -37 -46
-38 -47 -8 -20 19 17 51 53 73 80 26 32 51 52 69 56 16 4 29 4 29 2 0 -3 -15
-26 -33 -52 -40 -55 -50 -71 -43 -71 3 0 26 30 52 66 38 53 51 65 68 60 12 -3
27 -6 35 -6 9 0 6 -10 -11 -32 -41 -55 -42 -65 -1 -20 37 41 39 42 71 30 36
-14 39 -20 16 -38 -8 -8 -20 -23 -25 -34 -7 -13 1 -9 20 12 34 35 47 38 75 17
19 -15 19 -15 -4 -40 -13 -14 -21 -27 -18 -31 3 -3 16 9 28 25 23 33 28 35 49
22 12 -8 12 -14 -3 -38 l-17 -28 25 27 c22 24 28 27 52 18 26 -10 26 -11 8
-33 l-19 -22 26 23 c16 14 38 22 62 22 21 0 63 9 94 20 32 11 60 20 62 20 3 0
-19 -25 -49 -56 -37 -39 -45 -49 -22 -33 17 12 50 44 72 71 30 35 64 59 127
90 79 39 93 43 162 43 67 -1 87 -6 161 -40 104 -47 107 -50 89 -72 -11 -15 -9
-14 11 2 18 14 36 19 63 17 34 -3 37 -6 32 -25 -5 -19 -4 -19 11 4 9 14 29 30
45 36 30 12 37 5 17 -15 -6 -6 -9 -14 -7 -17 3 -2 22 18 42 45 34 46 92 88
104 76 3 -2 -9 -25 -27 -51 -18 -26 -30 -49 -27 -51 3 -3 22 22 43 56 41 66
46 68 112 28z m-3341 -260 c13 -12 23 -25 23 -30 0 -11 -70 -88 -81 -88 -17 0
-10 102 8 122 20 23 22 23 50 -4z m4363 -63 c0 -23 -3 -45 -7 -49 -8 -7 -83
63 -83 78 0 5 10 20 22 33 l22 23 23 -22 c17 -16 23 -33 23 -63z m-4320 -39
c0 -25 -10 -45 -41 -80 -22 -25 -45 -46 -50 -46 -5 0 -9 16 -9 35 0 29 9 44
43 79 23 24 45 44 50 44 4 1 7 -13 7 -32z m4309 -88 c1 -21 -3 -38 -8 -38 -5
0 -27 20 -50 45 -32 35 -41 52 -41 81 l0 37 49 -44 c41 -37 49 -50 50 -81z
m-3458 13 c197 -46 489 -75 918 -91 156 -5 334 -8 395 -5 61 3 201 7 311 10
405 10 812 62 951 120 20 8 40 15 45 15 12 0 11 -101 -2 -137 -20 -58 -179
-102 -504 -137 -265 -29 -825 -55 -825 -37 0 5 20 27 45 48 48 40 54 53 30 73
-21 18 -74 -25 -106 -85 l-24 -46 -205 6 c-672 20 -1108 78 -1172 156 -26 31
-42 92 -34 132 l7 36 43 -20 c24 -10 81 -28 127 -38z m-841 -64 c0 -53 -4 -67
-22 -84 -25 -22 -68 -47 -73 -41 -2 2 -5 24 -6 50 -3 44 0 50 42 91 24 24 47
45 52 45 4 1 7 -26 7 -61z m4287 -71 c-1 -28 -7 -51 -14 -53 -7 -3 -30 13 -52
34 -40 38 -41 38 -35 95 l7 57 48 -42 c47 -41 49 -44 46 -91z m-3506 -45 c191
-60 712 -111 1137 -111 165 0 158 3 146 -58 -5 -24 -14 -34 -40 -42 -78 -26
-134 -104 -134 -186 l0 -47 -212 6 c-447 14 -867 72 -965 133 -22 14 -23 19
-23 175 0 125 3 160 13 155 6 -2 41 -14 78 -25z m2679 -124 c0 -136 -2 -156
-18 -170 -71 -65 -487 -127 -953 -144 l-186 -6 -6 58 c-10 97 -77 170 -167
182 -43 6 -46 13 -30 60 l11 30 252 6 c474 13 905 62 1037 120 62 27 60 31 60
-136z m-3454 57 c-6 -16 -65 -54 -83 -54 -8 0 -13 15 -13 40 0 36 4 41 39 60
22 11 43 25 48 32 9 15 18 -56 9 -78z m4273 -16 c1 -32 -2 -38 -19 -38 -11 0
-36 15 -56 33 -32 29 -35 36 -29 68 l7 36 48 -31 c44 -28 49 -35 49 -68z
m-489 42 c0 -38 -1 -40 -25 -34 -27 7 -35 -10 -9 -20 22 -8 78 -8 101 1 14 6
10 9 -17 13 -32 5 -35 7 -31 35 5 44 8 46 49 30 47 -20 70 -41 93 -87 63 -123
-37 -267 -177 -256 -121 10 -195 133 -149 245 21 50 42 72 90 94 63 29 75 26
75 -21z m-3400 -76 c0 -36 0 -36 -36 -32 l-37 4 23 -18 c24 -19 85 -24 110 -8
12 8 9 10 -12 10 -25 0 -28 4 -28 34 0 19 5 38 10 41 15 9 94 -39 113 -68 63
-97 28 -220 -78 -268 -49 -23 -84 -24 -133 -4 -101 43 -143 151 -96 250 20 44
94 95 136 95 26 0 28 -3 28 -36z m-369 -37 c3 -47 2 -50 -36 -73 -57 -34 -65
-32 -65 24 0 46 1 48 48 73 26 14 48 25 49 25 1 -1 3 -23 4 -49z m4236 3 c9 0
13 -15 13 -45 0 -58 -18 -66 -70 -31 -41 27 -48 49 -34 103 l6 22 36 -24 c20
-14 42 -25 49 -25z m-3597 -103 c0 -56 17 -72 113 -102 161 -51 453 -87 868
-107 l256 -12 19 -35 c72 -132 279 -133 353 0 20 36 26 39 64 39 84 0 416 21
567 36 282 27 513 76 561 120 13 12 19 30 19 61 0 42 1 43 33 43 56 0 71 -10
97 -63 42 -88 131 -129 229 -107 44 10 63 21 103 63 l50 50 69 -12 c67 -13 69
-13 63 -39 -4 -15 -15 -36 -25 -48 -28 -30 -23 -42 19 -53 47 -14 79 -14 141
0 62 13 70 23 40 55 -32 34 -20 38 40 15 67 -25 101 -48 101 -66 0 -37 -178
-96 -409 -135 -329 -55 -701 -87 -1291 -111 -327 -13 -1320 -7 -1610 10 -738
44 -1226 114 -1382 198 -27 15 -48 32 -48 40 0 7 15 22 33 33 41 25 156 64
165 56 3 -4 -2 -20 -12 -36 -9 -17 -15 -34 -11 -39 6 -11 94 -31 133 -31 37 0
102 19 102 30 0 5 -11 22 -25 38 -14 17 -25 41 -25 55 0 22 5 26 46 32 26 3
53 9 60 12 9 3 14 -3 14 -18 1 -39 35 -103 71 -133 44 -37 73 -47 135 -47 116
0 204 88 204 206 0 45 0 45 35 45 35 0 35 0 35 -43z m1534 -5 c74 -51 98 -150
56 -232 -30 -59 -73 -84 -150 -88 -55 -3 -70 0 -100 20 -96 65 -115 182 -44
268 31 36 80 64 100 56 8 -3 14 -18 14 -35 0 -21 -6 -30 -22 -35 -19 -5 -21
-8 -8 -16 24 -16 66 -11 91 10 l24 20 -32 -6 c-33 -6 -33 -6 -33 36 l0 42 33
-7 c17 -4 50 -19 71 -33z m-2164 -17 c0 -19 0 -38 0 -41 0 -3 -22 -7 -50 -8
-44 -1 -50 1 -50 19 0 15 13 28 43 42 56 29 57 29 57 -12z m4188 10 c31 -13
42 -24 42 -40 0 -19 -5 -21 -55 -21 -53 1 -55 2 -55 28 0 31 10 60 19 55 3 -2
25 -12 49 -22z m-4170 -101 c36 -25 26 -34 -42 -34 -68 0 -96 6 -96 21 0 28
103 38 138 13z m4207 4 c50 -22 19 -38 -77 -38 -42 0 -58 4 -58 13 0 31 86 47
135 25z m-4410 -157 c231 -68 665 -121 1295 -157 365 -21 1415 -25 1760 -6
836 46 1322 112 1502 203 21 11 39 19 41 19 2 0 7 -99 10 -219 8 -236 5 -256
-41 -304 -81 -86 -200 -93 -406 -22 -287 98 -369 90 -592 -63 -186 -128 -204
-137 -294 -137 -88 0 -116 13 -260 115 -144 102 -190 123 -285 128 -103 5
-153 -13 -311 -115 -170 -109 -214 -128 -299 -128 -84 1 -116 16 -297 138
-146 99 -209 122 -307 114 -86 -6 -150 -31 -296 -117 -153 -90 -207 -110 -293
-110 -82 0 -130 25 -242 126 -104 93 -160 118 -259 112 -58 -4 -97 -13 -166
-42 -156 -65 -198 -79 -255 -80 -66 -1 -113 23 -148 75 -22 32 -23 41 -18 134
3 55 8 166 12 247 l6 147 37 -18 c20 -10 68 -28 106 -40z m563 -476 c26 -14
65 -42 86 -62 l39 -36 -74 -70 c-41 -38 -63 -61 -49 -51 14 10 49 41 77 68
l53 50 32 -30 c48 -45 104 -74 155 -81 l45 -6 -53 -48 c-30 -27 -50 -48 -44
-49 5 0 32 22 60 49 40 39 59 50 95 56 l45 7 -47 -42 c-27 -23 -48 -47 -48
-53 0 -6 26 15 58 46 33 32 83 69 113 83 l54 25 -40 -43 c-87 -93 -84 -98 6
-8 82 83 107 102 199 148 150 75 223 84 336 42 35 -13 184 -110 184 -119 0 -4
-12 -14 -28 -23 -15 -9 -36 -27 -47 -39 -13 -15 -1 -10 31 14 29 20 55 37 58
37 4 0 18 -7 32 -17 l25 -16 -43 -40 c-24 -21 -34 -33 -23 -26 11 7 32 24 46
36 l26 24 64 -31 c35 -16 75 -30 89 -30 l25 -1 -30 -22 c-36 -27 -108 -95 -80
-76 11 7 44 33 73 57 28 24 52 42 52 39 0 -2 20 -1 45 3 25 4 45 5 45 4 0 -2
-20 -22 -45 -45 -25 -23 -45 -46 -45 -52 0 -7 28 16 63 50 34 33 82 71 107 83
25 13 57 31 72 42 16 11 33 16 38 13 6 -4 33 13 59 38 42 39 117 87 137 87 4
0 -29 -37 -72 -82 -44 -46 -94 -103 -113 -128 -19 -25 4 -4 50 45 46 50 105
112 130 140 l47 49 73 1 c92 0 150 -25 289 -125 159 -114 246 -144 348 -117
28 8 52 12 52 10 0 -2 -7 -16 -16 -31 -10 -17 0 -9 27 19 24 26 82 73 129 105
93 64 93 65 -19 -67 l-54 -64 59 61 c32 33 84 88 114 120 70 77 136 104 248
104 43 0 83 -4 90 -8 9 -6 -9 -34 -69 -103 l-81 -94 69 70 c38 39 78 82 88 97
l20 28 140 -47 c124 -41 151 -47 240 -49 l100 -2 3 -241 c3 -278 14 -251 -118
-295 -514 -171 -2149 -238 -3350 -135 -440 37 -847 108 -994 173 l-56 25 0
230 0 229 55 4 c30 1 55 2 55 1 0 -1 -24 -25 -52 -54 -57 -57 -29 -39 38 24
35 33 191 113 201 103 2 -1 -40 -40 -92 -85 -52 -46 -95 -85 -95 -87 0 -9 38
21 136 107 109 95 107 94 152 104 32 7 30 3 -45 -70 l-78 -78 83 73 c45 40 85
77 88 82 11 17 101 1 152 -27z m-418 -650 c728 -195 2624 -240 3750 -89 286
38 529 96 585 138 31 24 35 20 35 -35 0 -72 -18 -126 -52 -154 -104 -88 -609
-167 -1348 -212 -400 -24 -1378 -24 -1780 0 -745 45 -1226 122 -1360 217 -29
21 -54 94 -45 136 2 10 6 31 9 46 l6 27 53 -24 c28 -13 95 -36 147 -50z m-67
-211 c199 -68 579 -121 1142 -160 313 -22 1341 -30 1702 -15 745 33 1303 105
1506 195 l57 25 0 -313 0 -313 -49 -26 c-157 -86 -660 -158 -1386 -199 -286
-16 -1357 -16 -1650 0 -616 34 -1067 91 -1289 162 -51 17 -105 39 -120 51
l-26 20 0 310 0 310 21 -12 c12 -6 53 -22 92 -35z m-143 -403 l0 -179 30 -25
c246 -207 2199 -312 3565 -191 534 47 875 117 963 197 21 20 22 27 22 199 l0
178 28 0 c45 0 90 -17 132 -50 21 -17 66 -40 99 -51 54 -18 63 -26 102 -85 81
-122 79 -103 26 -175 -26 -35 -53 -74 -62 -86 -8 -12 -38 -28 -68 -37 -29 -8
-74 -32 -99 -51 -36 -28 -60 -38 -108 -45 -40 -6 -77 -19 -109 -39 -38 -25
-58 -31 -102 -31 -40 0 -70 -8 -114 -30 -47 -23 -74 -29 -121 -30 -40 0 -78
-7 -105 -20 -30 -13 -66 -20 -111 -20 -44 0 -85 -7 -120 -21 -41 -16 -66 -20
-111 -15 -44 4 -70 1 -113 -15 -45 -17 -68 -20 -117 -15 -49 5 -75 3 -120 -13
-48 -17 -67 -19 -110 -11 -41 8 -65 6 -115 -8 -52 -14 -74 -16 -123 -8 -48 8
-69 7 -114 -8 -47 -14 -64 -15 -114 -5 -49 9 -68 8 -116 -5 -48 -15 -65 -15
-111 -5 -44 10 -68 10 -119 0 -51 -10 -74 -10 -119 0 -45 10 -67 10 -112 0
-45 -10 -68 -10 -119 0 -50 10 -75 10 -117 1 -45 -10 -62 -10 -108 4 -47 14
-64 15 -116 4 -53 -10 -69 -9 -117 6 -45 14 -66 15 -116 7 -44 -7 -70 -6 -95
2 -62 22 -96 25 -143 15 -38 -9 -55 -7 -106 10 -48 17 -73 20 -127 14 -54 -5
-73 -3 -101 12 -26 14 -53 18 -111 16 -58 -1 -89 4 -124 18 -30 13 -68 20
-114 20 -46 0 -82 6 -111 20 -28 12 -66 20 -106 20 -47 0 -76 7 -125 30 -43
21 -78 30 -112 30 -36 0 -62 8 -102 31 -33 18 -78 34 -114 39 -46 6 -70 17
-102 43 -24 19 -70 44 -103 55 -33 12 -64 29 -70 38 -5 9 -31 46 -57 81 -49
69 -50 81 -13 123 13 14 34 43 47 65 32 52 42 59 106 80 30 9 69 31 88 47 37
32 71 46 122 47 l32 1 0 -179z m-355 -265 c23 -31 45 -46 88 -61 31 -11 78
-37 104 -57 35 -26 62 -38 103 -43 30 -4 82 -22 118 -41 48 -25 76 -34 113
-34 33 0 66 -8 99 -25 37 -19 65 -25 111 -25 45 0 77 -7 120 -26 48 -22 69
-26 111 -21 41 4 68 -1 116 -19 50 -19 75 -22 120 -18 45 5 69 1 110 -15 44
-17 66 -20 117 -15 46 5 76 2 114 -11 39 -13 68 -15 119 -10 45 4 77 2 97 -6
17 -7 82 -14 145 -16 282 -8 328 -10 372 -18 29 -4 65 -3 91 3 34 9 55 8 97
-4 46 -12 66 -12 118 -2 48 9 76 9 125 0 51 -10 71 -10 116 2 43 12 65 13 104
4 29 -6 70 -7 96 -3 25 4 93 9 151 11 58 2 155 5 215 7 61 2 123 9 140 16 20
8 52 10 102 6 56 -6 81 -3 117 10 35 14 61 16 110 11 53 -5 74 -3 118 15 43
17 65 20 116 15 52 -6 71 -3 110 15 35 16 65 21 116 20 54 -1 80 4 124 24 38
18 72 25 114 25 42 0 72 7 106 24 29 14 72 25 114 28 52 4 78 13 115 36 32 20
68 33 105 37 45 6 69 16 110 47 29 21 77 46 106 54 48 14 57 21 95 80 23 35
45 64 49 64 5 0 8 -19 8 -41 0 -33 -9 -53 -45 -103 -24 -33 -51 -71 -60 -83
-8 -12 -38 -28 -69 -37 -30 -9 -73 -32 -96 -51 -43 -36 -53 -40 -130 -50 -26
-3 -65 -19 -90 -35 -36 -24 -56 -30 -100 -30 -41 0 -71 -8 -115 -30 -47 -23
-74 -29 -123 -30 -43 0 -75 -6 -102 -20 -28 -14 -59 -20 -110 -20 -51 0 -86
-6 -121 -21 -38 -17 -62 -20 -107 -16 -41 3 -73 -1 -116 -15 -46 -16 -72 -19
-121 -14 -51 5 -74 2 -119 -14 -46 -18 -63 -20 -107 -12 -48 9 -137 -3 -169
-23 -4 -3 -33 0 -64 7 -48 9 -66 8 -116 -7 -52 -16 -67 -16 -118 -5 -50 10
-66 10 -113 -4 -46 -14 -63 -15 -117 -4 -49 9 -73 9 -108 0 -56 -15 -92 -15
-134 0 -25 8 -48 8 -97 -2 -51 -10 -75 -10 -127 1 -52 10 -76 10 -120 0 -46
-10 -63 -10 -110 4 -47 14 -65 14 -112 5 -47 -10 -66 -9 -120 6 -52 14 -73 15
-117 6 -46 -9 -64 -8 -115 8 -51 16 -71 18 -115 10 -45 -9 -62 -7 -112 10 -45
16 -72 19 -119 14 -47 -5 -75 -1 -121 14 -42 14 -76 18 -115 15 -41 -4 -68 0
-108 16 -34 14 -75 21 -116 21 -42 0 -79 7 -107 20 -28 12 -66 20 -106 20 -47
0 -76 7 -125 30 -46 22 -78 30 -117 30 -43 0 -64 6 -102 31 -31 20 -69 33
-108 39 -46 6 -71 17 -107 44 -26 20 -72 44 -101 52 -48 14 -59 22 -88 67 -18
29 -45 67 -59 86 -19 26 -26 46 -25 80 l0 46 22 -29 c12 -16 36 -48 52 -70z"/>
<path stroke="#CB7640" d="M4396 4859 c22 -36 156 -70 204 -51 21 8 17 10 -35 17 -33 4 -86 15
-117 25 -32 10 -55 14 -52 9z"/>
<path stroke="#CB7640" d="M2833 4836 c2 -6 25 -24 51 -40 37 -23 62 -31 109 -33 l62 -3 -65 20
c-35 11 -86 30 -113 44 -26 13 -46 18 -44 12z"/>
<path stroke="#CB7640" d="M3639 4800 c42 -36 122 -56 177 -45 38 8 37 8 -41 22 -44 8 -100 23
-125 33 l-45 20 34 -30z"/>
<path stroke="#CB7640" d="M4189 4773 c-24 -27 -58 -64 -74 -83 -24 -28 -20 -26 18 10 45 42
113 120 105 120 -2 0 -24 -21 -49 -47z"/>
<path stroke="#CB7640" d="M4873 4788 c-20 -23 -47 -68 -40 -68 2 0 18 20 36 45 35 49 37 58 4
23z"/>
<path stroke="#CB7640" d="M4259 4763 c-67 -72 -73 -88 -11 -28 34 33 62 61 62 62 0 12 -21 -3
-51 -34z"/>
<path stroke="#CB7640" d="M4054 4718 c-86 -90 -124 -137 -65 -83 43 40 146 155 139 155 -2 0
-35 -33 -74 -72z"/>
<path stroke="#CB7640" d="M4331 4745 c-43 -49 -39 -58 6 -13 20 21 34 40 31 43 -3 3 -19 -10
-37 -30z"/>
<path stroke="#CB7640" d="M4417 4742 c-19 -20 -23 -37 -7 -27 10 6 33 45 27 45 -2 0 -11 -8
-20 -18z"/>
<path stroke="#CB7640" d="M2759 4733 c-37 -45 -40 -55 -6 -24 20 19 37 36 37 38 0 9 -19 1 -31
-14z"/>
<path stroke="#CB7640" d="M2810 4680 c-29 -41 -20 -49 9 -9 13 17 21 33 18 35 -3 3 -15 -9 -27
-26z"/>
<path stroke="#CB7640" d="M3028 4643 c-29 -34 -30 -48 -2 -21 15 15 26 30 23 33 -3 3 -13 -3
-21 -12z"/>
<path stroke="#CB7640" d="M3807 4632 c-26 -27 -36 -49 -17 -37 10 6 53 65 48 65 -3 0 -16 -13
-31 -28z"/>
<path stroke="#CB7640" d="M2934 4626 c-9 -15 -14 -29 -12 -32 3 -2 13 7 22 22 10 14 15 28 13
31 -3 2 -13 -7 -23 -21z"/>
<path stroke="#CB7640" d="M4694 4615 c-4 -9 -2 -21 4 -27 15 -15 44 -1 40 19 -4 23 -36 29 -44
8z m36 -3 c0 -13 -12 -22 -22 -16 -10 6 -1 24 13 24 5 0 9 -4 9 -8z"/>
<path stroke="#CB7640" d="M2794 4565 c-4 -9 -2 -21 4 -27 15 -15 44 -1 40 19 -4 23 -36 29 -44
8z m36 -16 c0 -5 -7 -9 -15 -9 -15 0 -20 12 -9 23 8 8 24 -1 24 -14z"/>
<path stroke="#CB7640" d="M3610 4566 c-18 -22 -5 -48 22 -44 17 2 23 10 23 28 0 29 -26 38 -45
16z m38 -19 c2 -10 -3 -17 -12 -17 -18 0 -29 16 -21 31 9 14 29 6 33 -14z"/>
<path stroke="#CB7640" d="M3977 4453 c-15 -14 -7 -43 12 -43 26 0 36 17 21 35 -14 16 -23 19
-33 8z m28 -23 c-3 -5 -10 -10 -16 -10 -5 0 -9 5 -9 10 0 6 7 10 16 10 8 0 12
-4 9 -10z"/>
<path stroke="#CB7640" d="M3184 4415 c-4 -9 -2 -21 4 -27 15 -15 44 -1 40 19 -4 23 -36 29 -44
8z m27 -8 c-1 -12 -15 -9 -19 4 -3 6 1 10 8 8 6 -3 11 -8 11 -12z"/>
<path stroke="#CB7640" d="M2440 4274 c104 -41 353 -82 336 -55 -4 6 -15 11 -25 11 -10 0 -87
14 -172 31 -210 43 -213 43 -139 13z"/>
<path stroke="#CB7640" d="M4752 4240 c-106 -16 -198 -31 -205 -34 -7 -4 39 -4 102 -1 114 6
215 22 301 49 69 21 20 18 -198 -14z"/>
<path stroke="#CB7640" d="M2412 4098 c-16 -16 -15 -33 4 -48 22 -19 54 12 38 37 -14 22 -27 26
-42 11z m38 -23 c0 -8 -9 -15 -20 -15 -11 0 -20 7 -20 15 0 8 9 15 20 15 11 0
20 -7 20 -15z"/>
<path stroke="#CB7640" d="M3094 3995 c-4 -9 -2 -21 4 -27 15 -15 44 -1 40 19 -4 23 -36 29 -44
8z m36 -10 c0 -8 -4 -15 -9 -15 -13 0 -22 16 -14 24 11 11 23 6 23 -9z"/>
<path stroke="#CB7640" d="M2830 3955 c-18 -21 -5 -47 22 -43 26 3 37 36 16 49 -18 12 -24 11
-38 -6z m40 -21 c0 -9 -7 -14 -17 -12 -25 5 -28 28 -4 28 12 0 21 -6 21 -16z"/>
<path stroke="#CB7640" d="M2613 3933 c-21 -8 -15 -43 6 -43 11 0 23 5 27 11 8 14 -17 38 -33
32z m27 -23 c0 -5 -7 -10 -15 -10 -8 0 -15 5 -15 10 0 6 7 10 15 10 8 0 15 -4
15 -10z"/>
<path stroke="#CB7640" d="M4894 4045 c-4 -9 -2 -21 4 -27 15 -15 44 -1 40 19 -4 23 -36 29 -44
8z m27 -18 c-13 -13 -26 -3 -16 12 3 6 11 8 17 5 6 -4 6 -10 -1 -17z"/>
<path stroke="#CB7640" d="M4690 3991 c0 -27 19 -36 37 -18 18 18 9 37 -18 37 -12 0 -19 -7 -19
-19z m30 -1 c0 -5 -4 -10 -10 -10 -5 0 -10 5 -10 10 0 6 5 10 10 10 6 0 10 -4
10 -10z"/>
<path stroke="#CB7640" d="M4034 3979 c-3 -6 0 -18 9 -26 18 -18 37 -9 37 18 0 21 -34 27 -46 8z
m36 -9 c0 -5 -7 -10 -16 -10 -8 0 -12 5 -9 10 3 6 10 10 16 10 5 0 9 -4 9 -10z"/>
<path stroke="#CB7640" d="M4393 3913 c-18 -6 -16 -40 1 -46 8 -3 20 1 27 9 10 12 9 18 -2 28
-8 8 -20 12 -26 9z m22 -23 c3 -5 -1 -10 -9 -10 -9 0 -16 5 -16 10 0 6 4 10 9
10 6 0 13 -4 16 -10z"/>
<path stroke="#CB7640" d="M5958 3283 c-60 -31 -165 -39 -270 -21 -91 17 -94 8 -6 -17 123 -36
259 -17 312 44 11 11 17 20 15 20 -2 -1 -25 -13 -51 -26z"/>
<path stroke="#CB7640" d="M1620 3270 c-105 -42 -127 -44 -193 -22 -31 10 -57 18 -57 16 0 -2
20 -15 43 -29 75 -43 178 -26 267 45 32 25 29 25 -60 -10z"/>
<path stroke="#CB7640" d="M2192 3209 c58 -77 162 -120 248 -99 71 17 69 27 -5 22 -77 -5 -118
8 -200 63 -57 38 -62 40 -43 14z"/>
<path stroke="#CB7640" d="M3335 3185 c22 -19 71 -51 109 -70 56 -28 80 -35 128 -35 32 0 74 7
93 14 43 18 46 29 4 14 -63 -22 -145 -4 -264 56 -105 54 -108 55 -70 21z"/>
<path stroke="#CB7640" d="M4501 3167 c79 -75 146 -107 226 -107 35 0 80 7 100 15 41 17 40 31
-1 15 -42 -16 -121 -12 -174 8 -26 10 -83 42 -127 71 l-80 52 56 -54z"/>
<path stroke="#CB7640" d="M5239 3128 c-116 -127 -139 -162 -34 -53 79 82 132 145 122 145 -2 0
-41 -41 -88 -92z"/>
<path stroke="#CB7640" d="M1870 3143 c-36 -38 -45 -49 -20 -27 25 23 58 54 74 68 16 14 25 26
20 26 -5 0 -39 -30 -74 -67z"/>
<path stroke="#CB7640" d="M2854 3093 c-54 -59 -87 -99 -73 -90 31 21 189 197 176 197 -2 0 -48
-48 -103 -107z"/>
<path stroke="#CB7640" d="M1955 3139 c-33 -28 -69 -60 -80 -71 -38 -39 40 19 98 72 68 64 58
63 -18 -1z"/>
<path stroke="#CB7640" d="M4109 3123 c-94 -98 -115 -129 -35 -53 59 57 114 120 104 120 -2 0
-33 -30 -69 -67z"/>
<path stroke="#CB7640" d="M2972 3107 c-39 -40 -72 -76 -72 -81 0 -5 7 -3 15 4 19 16 138 150
133 150 -2 0 -36 -33 -76 -73z"/>
<path stroke="#CB7640" d="M3104 3128 c-67 -72 -81 -96 -25 -43 45 43 79 85 68 85 -1 0 -21 -19
-43 -42z"/>
<path stroke="#CB7640" d="M5501 3116 c-63 -68 -67 -86 -5 -26 41 40 71 80 61 80 -2 0 -27 -24
-56 -54z"/>
<path stroke="#CB7640" d="M4234 3135 c-17 -13 -43 -41 -59 -62 -22 -30 -14 -25 34 22 33 33 61
61 61 62 0 6 -5 2 -36 -22z"/>
<path stroke="#CB7640" d="M2003 3074 c-43 -42 -60 -62 -38 -46 43 33 133 122 123 122 -4 0 -42
-34 -85 -76z"/>
<path stroke="#CB7640" d="M2733 3068 c-86 -103 -97 -118 -90 -118 3 0 36 37 74 83 86 103 97
117 90 117 -3 0 -37 -37 -74 -82z"/>
<path stroke="#CB7640" d="M4359 3120 c-9 -5 -24 -22 -34 -37 -16 -25 -14 -25 19 6 44 42 48 50
15 31z"/>
<path stroke="#CB7640" d="M5626 3090 c-32 -36 -42 -50 -33 -50 2 0 23 20 47 45 24 25 39 45 33
45 -6 0 -27 -18 -47 -40z"/>
<path stroke="#CB7640" d="M3190 3090 c-19 -17 -26 -27 -15 -21 19 9 63 51 54 51 -3 0 -20 -14
-39 -30z"/>
<path stroke="#CB7640" d="M5750 3069 c-25 -22 -36 -36 -25 -30 19 9 84 71 74 71 -2 0 -24 -19
-49 -41z"/>
<path stroke="#CB7640" d="M5895 3068 c-35 -36 -36 -38 -10 -21 36 25 72 63 59 63 -6 0 -28 -19
-49 -42z"/>
<path stroke="#CB7640" d="M4428 3069 c-10 -5 -23 -20 -29 -32 -10 -18 -6 -17 20 7 39 37 42 45
9 25z"/>
<path stroke="#CB7640" d="M3824 3026 c-22 -19 -62 -60 -89 -93 -40 -48 -33 -43 43 32 51 49 92
91 92 92 0 7 -9 1 -46 -31z"/>
<path stroke="#CB7640" d="M2154 2984 c-41 -39 -47 -47 -19 -26 40 30 93 82 83 82 -2 0 -31 -25
-64 -56z"/>
<path stroke="#CB7640" d="M4503 2996 c-15 -13 -25 -27 -22 -30 3 -3 18 8 34 24 35 36 27 40
-12 6z"/>
<path stroke="#CB7640" d="M1732 2998 c-17 -17 -15 -45 4 -52 19 -7 44 10 44 30 0 20 -34 36
-48 22z m31 -23 c1 -5 -6 -11 -15 -13 -11 -2 -18 3 -18 13 0 17 30 18 33 0z"/>
<path stroke="#CB7640" d="M2226 2944 c-56 -45 -71 -63 -38 -45 23 13 109 90 100 91 -3 0 -31
-20 -62 -46z"/>
<path stroke="#CB7640" d="M4213 2983 c-7 -2 -13 -16 -13 -29 0 -19 5 -24 25 -24 30 0 43 24 25
45 -13 16 -17 17 -37 8z m30 -28 c1 -5 -6 -11 -15 -13 -11 -2 -18 3 -18 13 0
17 30 18 33 0z"/>
<path stroke="#CB7640" d="M3412 2950 c-23 -17 -42 -33 -42 -36 0 -8 59 29 77 49 24 25 11 21
-35 -13z"/>
<path stroke="#CB7640" d="M4579 2960 c-13 -10 -19 -19 -13 -20 6 0 19 9 29 20 23 26 14 26 -16
0z"/>
<path stroke="#CB7640" d="M4665 2939 c-11 -17 1 -21 15 -4 8 9 8 15 2 15 -6 0 -14 -5 -17 -11z"/>
<path stroke="#CB7640" d="M5691 2917 c-17 -21 -3 -47 26 -47 21 0 24 4 21 27 -3 31 -29 41 -47
20z m39 -22 c0 -8 -6 -15 -14 -15 -17 0 -28 14 -19 24 12 12 33 6 33 -9z"/>
<path stroke="#CB7640" d="M3115 2844 c-19 -19 -2 -59 22 -50 8 3 17 6 19 6 2 0 4 11 4 24 0 30
-24 40 -45 20z m35 -19 c0 -8 -7 -15 -15 -15 -8 0 -15 7 -15 15 0 8 7 15 15
15 8 0 15 -7 15 -15z"/>
<path stroke="#CB7640" d="M4751 2827 c-17 -21 -3 -47 26 -47 21 0 24 4 21 27 -3 31 -29 41 -47
20z m39 -23 c0 -14 -21 -19 -33 -7 -9 9 13 34 24 27 5 -3 9 -12 9 -20z"/>
<path stroke="#CB7640" d="M2624 2776 c-10 -26 4 -48 28 -44 17 2 23 10 23 28 0 18 -6 26 -23
28 -13 2 -25 -3 -28 -12z m42 -7 c10 -17 -13 -36 -27 -22 -12 12 -4 33 11 33
5 0 12 -5 16 -11z"/>
<path stroke="#CB7640" d="M2151 2737 c-17 -21 -3 -49 23 -45 15 2 21 10 21 28 0 28 -26 38 -44
17z m39 -23 c0 -14 -21 -19 -33 -7 -9 9 13 34 24 27 5 -3 9 -12 9 -20z"/>
<path stroke="#CB7640" d="M5250 2715 c-10 -12 -10 -18 0 -30 7 -8 18 -15 25 -15 7 0 18 7 25
15 10 12 10 18 0 30 -7 8 -18 15 -25 15 -7 0 -18 -7 -25 -15z m40 -15 c0 -11
-7 -20 -15 -20 -8 0 -15 9 -15 20 0 11 7 20 15 20 8 0 15 -9 15 -20z"/>
<path stroke="#CB7640" d="M3657 2673 c-13 -12 -7 -41 10 -47 21 -8 48 17 40 38 -6 16 -38 22
-50 9z m39 -14 c7 -12 -15 -31 -28 -23 -4 3 -8 12 -8 20 0 17 26 19 36 3z"/>
<path stroke="#CB7640" d="M4214 2625 c-8 -21 2 -45 19 -45 20 0 40 27 33 45 -7 19 -45 20 -52
0z m40 -3 c8 -13 -11 -35 -23 -28 -16 10 -14 36 3 36 8 0 17 -4 20 -8z"/>
<path stroke="#CB7640" d="M3134 2605 c-9 -23 3 -45 25 -45 23 0 35 28 20 46 -15 18 -38 18 -45
-1z m40 -10 c3 -9 -1 -18 -10 -22 -19 -7 -28 2 -21 22 8 19 23 19 31 0z"/>
<path stroke="#CB7640" d="M1629 2410 c169 -59 394 -96 626 -104 122 -4 130 -4 65 5 -293 38
-524 74 -634 99 -72 17 -132 30 -135 29 -4 0 32 -14 78 -29z"/>
<path stroke="#CB7640" d="M5795 2419 c-63 -19 -287 -63 -435 -85 l-155 -23 125 4 c137 4 290
31 410 72 100 34 142 59 55 32z"/>
<path stroke="#CB7640" d="M5724 2115 c-8 -21 2 -45 19 -45 21 0 38 25 31 44 -8 20 -43 21 -50
1z m39 -2 c9 -9 -13 -34 -24 -27 -14 8 -11 34 4 34 8 0 17 -3 20 -7z"/>
<path stroke="#CB7640" d="M1704 2096 c-10 -26 4 -48 28 -44 17 2 23 10 23 28 0 18 -6 26 -23
28 -13 2 -25 -3 -28 -12z m42 -7 c10 -17 -13 -36 -27 -22 -12 12 -4 33 11 33
5 0 12 -5 16 -11z"/>
<path stroke="#CB7640" d="M2214 2075 c-9 -23 3 -45 26 -45 25 0 37 25 20 45 -16 19 -39 19 -46
0z m42 -6 c10 -17 -13 -36 -27 -22 -12 12 -4 33 11 33 5 0 12 -5 16 -11z"/>
<path stroke="#CB7640" d="M4135 2060 c-12 -20 6 -51 28 -48 31 4 31 52 0 56 -11 2 -24 -2 -28
-8z m41 -11 c10 -17 -13 -36 -27 -22 -12 12 -4 33 11 33 5 0 12 -5 16 -11z"/>
<path stroke="#CB7640" d="M2846 2034 c-17 -16 -12 -40 9 -48 19 -7 46 20 39 39 -8 21 -32 26
-48 9z m34 -19 c0 -8 -7 -15 -15 -15 -8 0 -15 7 -15 15 0 8 7 15 15 15 8 0 15
-7 15 -15z"/>
<path stroke="#CB7640" d="M2613 1943 c-7 -2 -13 -16 -13 -29 0 -19 5 -24 25 -24 30 0 43 24 25
45 -13 16 -17 17 -37 8z m30 -28 c1 -5 -6 -11 -15 -13 -11 -2 -18 3 -18 13 0
17 30 18 33 0z"/>
<path stroke="#CB7640" d="M5054 1916 c-10 -26 4 -48 28 -44 17 2 23 10 23 28 0 18 -6 26 -23
28 -13 2 -25 -3 -28 -12z m42 -7 c10 -17 -13 -36 -27 -22 -12 12 -4 33 11 33
5 0 12 -5 16 -11z"/>
<path stroke="#CB7640" d="M3533 1864 c-8 -20 21 -49 41 -41 9 4 16 18 16 32 0 20 -5 25 -25 25
-14 0 -28 -7 -32 -16z m47 -7 c0 -8 -3 -17 -7 -20 -9 -9 -34 13 -27 24 8 14
34 11 34 -4z"/>
<path stroke="#CB7640" d="M1572 1861 c-21 -13 -10 -46 16 -49 27 -4 40 22 22 43 -14 17 -20 18
-38 6z m36 -23 c-7 -19 -38 -22 -38 -4 0 10 9 16 21 16 12 0 19 -5 17 -12z"/>
<path stroke="#CB7640" d="M5576 1854 c-18 -18 -6 -54 19 -54 25 0 37 36 19 54 -8 9 -17 16 -19
16 -2 0 -11 -7 -19 -16z m32 -21 c-4 -22 -22 -20 -26 1 -2 10 3 16 13 16 10 0
15 -7 13 -17z"/>
<path stroke="#CB7640" d="M4260 1795 c-18 -21 -5 -47 22 -43 26 3 37 36 16 49 -18 12 -24 11
-38 -6z m36 -6 c10 -17 -13 -36 -27 -22 -12 12 -4 33 11 33 5 0 12 -5 16 -11z"/>
<path stroke="#CB7640" d="M2204 1785 c-8 -21 2 -45 19 -45 20 0 40 27 33 45 -7 19 -45 20 -52
0z m39 -2 c9 -9 -13 -34 -24 -27 -14 8 -11 34 4 34 8 0 17 -3 20 -7z"/>
<path stroke="#CB7640" d="M2792 1768 c-17 -17 -15 -36 7 -47 25 -14 50 13 35 37 -14 21 -27 25
-42 10z m38 -24 c0 -9 -7 -14 -17 -12 -25 5 -28 28 -4 28 12 0 21 -6 21 -16z"/>
<path stroke="#CB7640" d="M4684 1765 c-8 -21 2 -45 19 -45 8 0 20 7 27 15 10 12 10 18 0 30 -7
8 -19 15 -27 15 -7 0 -16 -7 -19 -15z m36 -16 c0 -24 -23 -21 -28 4 -2 10 3
17 12 17 10 0 16 -9 16 -21z"/>
<path stroke="#CB7640" d="M3224 1736 c-10 -26 4 -48 28 -44 17 2 23 10 23 28 0 18 -6 26 -23
28 -13 2 -25 -3 -28 -12z m42 -7 c10 -17 -13 -36 -27 -22 -12 12 -4 33 11 33
5 0 12 -5 16 -11z"/>
<path stroke="#CB7640" d="M3854 1655 c-9 -23 3 -45 26 -45 25 0 37 25 20 45 -16 19 -39 19 -46
0z m41 -16 c0 -7 -8 -15 -17 -17 -18 -3 -25 18 -11 32 10 10 28 1 28 -15z"/>
</g>
</svg>
