<svg width="14" height="14" viewBox="0 0 14 14" fill="none" xmlns="http://www.w3.org/2000/svg">
<path d="M11.6666 7H13.6666V12.3333C13.6666 12.687 13.5261 13.0261 13.2761 13.2761C13.026 13.5262 12.6869 13.6667 12.3333 13.6667H11.6666V7ZM10.3333 1.66667V13.6667H1.66659C1.31296 13.6667 0.973825 13.5262 0.723776 13.2761C0.473728 13.0261 0.333252 12.687 0.333252 12.3333V1.66667C0.333252 1.31304 0.473728 0.973905 0.723776 0.723856C0.973825 0.473808 1.31296 0.333332 1.66659 0.333332H8.99992C9.35354 0.333332 9.69268 0.473808 9.94273 0.723856C10.1928 0.973905 10.3333 1.31304 10.3333 1.66667ZM5.66658 9.66667H2.33325V11H5.66658V9.66667ZM8.33325 6.33333H2.33325V7.66667H8.33325V6.33333ZM8.33325 3H2.33325V4.33333H8.33325V3Z" fill="white"/>
</svg>
