<svg width="15" height="15" viewBox="0 0 15 15" fill="none" xmlns="http://www.w3.org/2000/svg">
<path d="M14.155 4.45996H10.2675L8.50869 6.41838C8.27048 6.68354 7.95519 6.8296 7.62123 6.8296C7.27875 6.8296 6.95795 6.67707 6.71783 6.40012C6.25392 5.86449 6.23695 5.01894 6.66094 4.45999H0.84501C0.37834 4.45996 0 4.88875 0 5.41787V5.73719C0 6.25837 0.367734 6.68185 0.825469 6.69363L1.73651 13.0167C1.8467 13.7824 2.43076 14.3447 3.11528 14.3447H11.8832C12.5679 14.3447 13.1516 13.7824 13.262 13.0167L14.1732 6.69363C14.6312 6.68258 15 6.25907 15 5.73719V5.41787C15 4.88875 14.6217 4.45996 14.155 4.45996ZM4.49915 12.6183C4.42421 12.7123 4.31742 12.7663 4.20574 12.7663H3.98517C3.78835 12.7663 3.62168 12.6022 3.59405 12.3815L3.10893 8.49397C3.09299 8.36548 3.12674 8.23555 3.20168 8.13761C3.27665 8.03992 3.38558 7.98361 3.49998 7.98361H3.8465C4.04883 7.98361 4.21825 8.15663 4.23929 8.3845L4.59853 12.2723C4.60998 12.3983 4.57389 12.5239 4.49915 12.6183ZM6.75987 12.6313C6.68575 12.7174 6.58386 12.7663 6.47748 12.7663H6.2516C6.04266 12.7663 5.86986 12.5817 5.85756 12.3454L5.65374 8.45765C5.64735 8.33467 5.686 8.21387 5.76053 8.12436C5.83523 8.03461 5.93909 7.98358 6.04799 7.98358H6.40002C6.61465 7.98358 6.78984 8.17801 6.79471 8.42079L6.8724 12.3085C6.87475 12.4289 6.8342 12.5454 6.75987 12.6313ZM9.14121 12.3454C9.12867 12.5817 8.95585 12.7663 8.74693 12.7663H8.52103C8.41468 12.7663 8.31296 12.7174 8.23887 12.6313C8.16434 12.5454 8.12379 12.4289 8.12613 12.3086L8.20406 8.42083C8.20875 8.17805 8.38412 7.98361 8.59878 7.98361H8.95078C9.05927 7.98361 9.16351 8.03464 9.23804 8.12439C9.31257 8.21391 9.35118 8.3347 9.34482 8.45768L9.14121 12.3454ZM11.8896 8.49397L11.4045 12.3815C11.3771 12.6021 11.2102 12.7663 11.0136 12.7663H10.793C10.6811 12.7663 10.5743 12.7123 10.4996 12.6183C10.4246 12.5239 10.3885 12.3983 10.4002 12.2723L10.7592 8.3845C10.7803 8.15663 10.9499 7.98361 11.152 7.98361H11.4986C11.613 7.98361 11.7217 8.03992 11.7966 8.13761C11.8718 8.23555 11.9057 8.36548 11.8896 8.49397Z" fill="white"/>
<path d="M8.13336 5.98488L11.6455 2.07501C11.9334 1.75423 11.9374 1.22992 11.6546 0.903637C11.3718 0.577349 10.9089 0.572535 10.6211 0.893078L7.10914 4.80341C6.82124 5.12392 6.8172 5.64823 7.0998 5.97452C7.38283 6.3008 7.84523 6.30562 8.13336 5.98488Z" fill="white"/>
</svg>
