<svg width="12px" height="12px" viewBox="0 0 12 12" fill="none" xmlns="http://www.w3.org/2000/svg"
    transform="rotate(0) scale(1, 1)">
    <g clip-path="url(#clip0_299_158)">
        <path
            d="M6.00014 0C2.69218 0 0.000244141 2.69141 0.000244141 5.99979C0.000244141 9.30814 2.692 12 6.00014 12C9.30884 12 12 9.30835 12 5.99979C12 2.69141 9.30901 0 6.00014 0ZM8.59688 4.77049L5.45453 7.91284C5.36018 8.00709 5.23584 8.05467 5.11265 8.05467C4.98852 8.05467 4.86533 8.00712 4.77067 7.91284L3.40403 6.54621C3.21508 6.35708 3.21508 6.05119 3.40403 5.86227C3.59294 5.67336 3.89884 5.67336 4.08779 5.86227L5.11265 6.88749L7.91354 4.08646C8.10207 3.89775 8.40793 3.89775 8.59688 4.08646C8.78583 4.27568 8.78583 4.58158 8.59688 4.77049Z"
            fill="#CB7640" />
    </g>
    <defs>
        <clipPath id="clip0_299_158">
            <rect width="12" height="12" fill="#CB7640" />
        </clipPath>
    </defs>
</svg>