<svg width="14" height="14" viewBox="0 0 14 14" fill="none" xmlns="http://www.w3.org/2000/svg">
<path d="M4.08341 2.91667C2.47259 2.91667 1.16675 4.22251 1.16675 5.83334C1.16675 7.02935 1.88664 8.05724 2.91675 8.50734V10.0625H11.0834V8.50734C12.1135 8.05724 12.8334 7.02935 12.8334 5.83334C12.8334 4.22251 11.5276 2.91667 9.91675 2.91667C9.77062 2.91667 9.62701 2.92742 9.4866 2.94817C9.13531 1.91221 8.15473 1.16667 7.00008 1.16667C5.84543 1.16667 4.86485 1.91221 4.51354 2.94817C4.37317 2.92742 4.22955 2.91667 4.08341 2.91667Z" fill="#6E6E6E"/>
<path d="M11.0824 10.9375H2.91772C2.92367 11.7524 2.96541 12.1986 3.25845 12.4916C3.60015 12.8333 4.15013 12.8333 5.25007 12.8333H8.75007C9.85001 12.8333 10.4 12.8333 10.7417 12.4916C11.0348 12.1986 11.0765 11.7524 11.0824 10.9375Z" fill="#6E6E6E"/>
</svg>
