<svg width="12px" height="12px" viewBox="0 0 12 12" fill="none" xmlns="http://www.w3.org/2000/svg" transform="rotate(0) scale(1, 1)">
<g clip-path="url(#clip0_305_183)">
<path d="M11.0703 1.27194H9.78357V1.8054C9.78357 1.87214 9.72955 1.92636 9.66272 1.92636H9.38263C9.31577 1.92636 9.2617 1.87211 9.2617 1.8054V1.27194H7.97508C7.87859 1.27194 7.80029 1.35019 7.80029 1.44668V4.1923C7.80029 4.28886 7.87859 4.36704 7.97508 4.36704H11.0703C11.1667 4.36704 11.245 4.28889 11.245 4.1923V1.44665C11.245 1.35019 11.1667 1.27194 11.0703 1.27194Z" fill="#CB7640"/>
<path d="M9.27804 10.728C8.49647 10.728 7.8606 10.0922 7.8606 9.31051C7.8606 8.52879 8.49647 7.89291 9.27804 7.89291C10.0598 7.89291 10.6957 8.52879 10.6957 9.31051C10.6957 10.0922 10.0598 10.728 9.27804 10.728ZM9.27804 8.60728C8.89037 8.60728 8.57482 8.92278 8.57482 9.31051C8.57482 9.69818 8.89037 10.0138 9.27804 10.0138C9.66584 10.0138 9.98131 9.69818 9.98131 9.31051C9.98129 8.92278 9.66584 8.60728 9.27804 8.60728Z" fill="#CB7640"/>
<path d="M1.41754 10.728C0.635951 10.728 0 10.0922 0 9.31051C0 8.52879 0.635951 7.89291 1.41754 7.89291C2.19916 7.89291 2.83509 8.52879 2.83509 9.31051C2.83509 10.0922 2.19916 10.728 1.41754 10.728ZM1.41754 8.60728C1.02977 8.60728 0.714294 8.92278 0.714294 9.31051C0.714294 9.69818 1.02977 10.0138 1.41754 10.0138C1.80534 10.0138 2.12079 9.69818 2.12079 9.31051C2.12079 8.92278 1.80534 8.60728 1.41754 8.60728Z" fill="#CB7640"/>
<path d="M9.95503 6.53631V6.14783H10.9431C11.1667 6.14783 11.348 5.9667 11.348 5.74313V5.45498C11.348 5.23151 11.1667 5.05029 10.9431 5.05029H5.9907C5.76713 5.05029 5.58583 5.23151 5.58583 5.45498V5.74742C5.58583 5.97094 5.76713 6.15216 5.9907 6.15216H6.53826V7.70778H3.7948C3.59381 7.39433 3.33027 7.12475 3.02192 6.91644L4.10109 3.02447H5.09846C5.32203 3.02447 5.5032 2.84315 5.5032 2.61963C5.5032 2.39616 5.32203 2.21494 5.09846 2.21494C5.09846 2.21494 4.04912 2.21494 3.6808 2.21494C3.6304 2.21494 3.54255 2.23607 3.4995 2.2573C3.4371 2.2884 3.38261 2.33538 3.34284 2.39511L0.470893 6.70071C0.385325 6.82688 0.322191 6.98535 0.369432 7.12455C0.442803 7.34085 0.690885 7.41823 0.945015 7.34285C1.13804 7.28565 1.29826 7.26059 1.50196 7.26059C2.55644 7.26059 3.41432 8.11849 3.41432 9.173C3.41432 9.39657 3.59545 9.57784 3.81902 9.57784H6.96098C7.18455 9.57784 7.36582 9.39657 7.36582 9.173C7.36582 8.11849 8.22358 7.26059 9.27804 7.26059C10.3325 7.26059 11.1904 8.11849 11.1904 9.173C11.1904 9.39657 11.3718 9.57784 11.5952 9.57784C11.8189 9.57784 12 9.39657 12 9.173C12 7.90573 11.1294 6.838 9.95503 6.53631Z" fill="#CB7640"/>
</g>
<defs>
<clipPath id="clip0_305_183">
<rect width="12" height="12" fill="#CB7640"/>
</clipPath>
</defs>
</svg>