<svg width="14" height="14" viewBox="0 0 14 14" fill="none" xmlns="http://www.w3.org/2000/svg">
<g clip-path="url(#clip0_304_178)">
<path d="M9.5329 6.94606C9.51322 6.69693 9.29396 6.49118 9.04411 6.48735L7.39051 6.462C7.29445 6.46054 7.19709 6.37598 7.18217 6.28108L6.81784 3.96479C6.80463 3.88089 6.72639 3.53879 6.2993 3.53879L4.24296 3.62833C3.97205 3.6401 3.75182 3.77182 3.75182 4.14148C3.75182 4.14148 3.74317 9.28978 3.73264 9.47634L3.66069 10.7501C3.65107 10.9202 3.58479 11.1956 3.51596 11.3514L2.68363 13.2353C2.62869 13.3596 2.62959 13.497 2.68612 13.6123C2.74265 13.7276 2.85069 13.8125 2.98263 13.8453L3.25973 13.9141C3.30096 13.9243 3.34413 13.9295 3.38798 13.9295C3.61167 13.9295 3.82564 13.7997 3.92044 13.6064L4.71163 11.9937C4.79902 11.8156 4.90778 11.5137 4.95413 11.3208L5.40057 9.46105L6.48097 11.1133C6.57004 11.2495 6.66423 11.5109 6.68251 11.6727L6.89137 13.5225C6.92108 13.7858 7.1609 14 7.42595 14L7.74195 13.9989C7.87753 13.9984 8.0008 13.9443 8.08907 13.8465C8.1773 13.7487 8.21857 13.6206 8.20518 13.4857L7.98703 11.2864C7.96691 11.0836 7.89406 10.7756 7.82118 10.5853L6.85309 8.05667L6.84711 7.52362L9.09709 7.44034C9.22269 7.4357 9.33747 7.38191 9.42025 7.28891C9.50303 7.19594 9.54318 7.07572 9.53328 6.95027L9.5329 6.94606Z" fill="#6E6E6E"/>
<path d="M4.90027 3.04997C5.07337 3.04997 5.24455 3.02045 5.40903 2.96217C5.79295 2.82632 6.10095 2.54906 6.2763 2.18148C6.40029 1.92158 6.44707 1.63853 6.41602 1.35931L6.92699 1.30166C7.10505 1.28157 7.28578 1.13955 7.34739 0.9713L7.51853 0.503901C7.55507 0.404049 7.54544 0.303013 7.49209 0.226645C7.44008 0.152207 7.35243 0.109507 7.25165 0.109507C7.23997 0.109507 7.22788 0.110068 7.21549 0.111251L5.73801 0.251779C5.49446 0.0913494 5.20481 0 4.90011 0C4.72707 0 4.55595 0.0294947 4.39141 0.0877054C4.00752 0.223655 3.69952 0.500942 3.52414 0.86852C3.34876 1.2361 3.32705 1.64993 3.463 2.03376C3.67825 2.64159 4.25584 3.04997 4.90027 3.04997Z" fill="#6E6E6E"/>
<path d="M11.3558 5.43629L11.2087 3.32329C11.1913 3.07235 10.9724 2.86823 10.72 2.86823L7.8955 2.87315C7.76905 2.87336 7.65282 2.92354 7.56819 3.01442C7.4836 3.10527 7.44181 3.22478 7.45062 3.35095L7.59763 5.46394C7.6151 5.71488 7.83393 5.91901 8.08549 5.91901L10.9109 5.91409C11.0373 5.91387 11.1536 5.86372 11.2382 5.77284C11.3228 5.68196 11.3645 5.56242 11.3558 5.43629Z" fill="#6E6E6E"/>
</g>
<defs>
<clipPath id="clip0_304_178">
<rect width="14" height="14" fill="white"/>
</clipPath>
</defs>
</svg>
