<svg width="12" height="12" viewBox="0 0 12 12" fill="none" xmlns="http://www.w3.org/2000/svg">
<g clip-path="url(#clip0_285_135)">
<path d="M6.59303 0.0190735C4.82439 0.0190735 3.18981 0.885157 2.1875 2.2917C2.44151 2.36346 2.67455 2.49891 2.86657 2.69076L3.03167 2.85586C3.84742 1.72765 5.16657 1.03412 6.59303 1.03412C9.0147 1.03412 10.9849 3.00434 10.9849 5.42604C10.9849 6.85961 10.2934 8.17441 9.16422 8.98841L9.29174 9.11592C9.49702 9.32135 9.63794 9.57497 9.70507 9.84893C11.1266 8.85009 11.9999 7.21319 11.9999 5.42604C11.9999 2.44462 9.57441 0.0190735 6.59303 0.0190735Z" fill="#CB7640"/>
<path d="M7.35288 8.42716C7.20828 8.28256 7.01056 8.21015 6.80286 8.23101C6.43614 8.26807 6.09215 8.40924 5.80807 8.6393C5.76912 8.67115 5.71875 8.68893 5.66691 8.68893C5.61616 8.68893 5.56656 8.67168 5.52725 8.64039C4.72333 7.99327 3.98875 7.2582 3.34318 6.45505C3.27724 6.37364 3.27745 6.25484 3.34412 6.17308C3.57356 5.88974 3.71455 5.54595 3.75148 5.17945C3.77199 4.97514 3.70048 4.77462 3.55533 4.62933L2.24167 3.31582C2.11294 3.18722 1.94192 3.11634 1.76019 3.11634C1.73828 3.11634 1.71577 3.11743 1.69341 3.1196C1.26324 3.16177 0.85711 3.35411 0.550145 3.66114C-0.0400898 4.25148 -0.170646 5.17178 0.232714 5.89922C1.26012 7.77346 3.73096 10.4749 6.08826 11.7526C6.36222 11.9021 6.67286 11.9809 6.98704 11.9809C7.48644 11.9809 7.97276 11.781 8.32134 11.4324C8.62834 11.1253 8.82074 10.7192 8.86292 10.2888C8.88294 10.0854 8.81136 9.88561 8.6666 9.7407L7.35288 8.42716Z" fill="#CB7640"/>
<path d="M6.80363 1.84354C6.61032 1.84354 6.45361 2.00024 6.45361 2.19355V5.0637C6.45361 5.25701 6.61032 5.41371 6.80363 5.41371H9.4799C9.67318 5.41371 9.82992 5.25701 9.82992 5.0637C9.82992 4.87038 9.67318 4.71368 9.4799 4.71368H7.15365V2.19355C7.15365 2.00024 6.99691 1.84354 6.80363 1.84354Z" fill="#CB7640"/>
</g>
<defs>
<clipPath id="clip0_285_135">
<rect width="12" height="12" fill="white"/>
</clipPath>
</defs>
</svg>
