<svg width="12px" height="12px" viewBox="0 0 12 12" fill="none" xmlns="http://www.w3.org/2000/svg" transform="rotate(0) scale(1, 1)">
<g clip-path="url(#clip0_285_151)">
<path d="M10.1417 11.1925H9.42723L9.42715 9.91741C9.42715 8.63907 8.72582 7.46384 7.45237 6.60828C7.29123 6.49992 7.19111 6.26687 7.19111 6C7.19111 5.73313 7.29123 5.50008 7.45229 5.3918C8.72582 4.53612 9.42715 3.36093 9.42723 2.08255V0.807475H10.1417C10.3646 0.807475 10.5454 0.626667 10.5454 0.403717C10.5454 0.180768 10.3646 0 10.1417 0H1.85806C1.63511 0 1.45435 0.180808 1.45435 0.403717C1.45435 0.626707 1.63515 0.807475 1.85806 0.807475H2.57253V2.08255C2.57253 3.36101 3.27382 4.53624 4.54727 5.39176C4.70845 5.50008 4.80857 5.73309 4.80857 6C4.80857 6.26687 4.70845 6.49992 4.54732 6.6082C3.27382 7.4638 2.57253 8.63903 2.57253 9.91741V11.1925H1.85806C1.63511 11.1925 1.45435 11.3733 1.45435 11.5963C1.45435 11.8193 1.63515 12 1.85806 12H10.1417C10.3646 12 10.5454 11.8192 10.5454 11.5963C10.5454 11.3733 10.3646 11.1925 10.1417 11.1925ZM5.59616 4.45907C5.59616 4.23612 5.77693 4.05531 5.99988 4.05531C6.22283 4.05531 6.4036 4.23612 6.4036 4.45907V5.17277C6.4036 5.39576 6.22283 5.57649 5.99988 5.57649C5.77693 5.57649 5.59616 5.39572 5.59616 5.17277V4.45907ZM5.71435 7.02853C5.78942 6.9535 5.89358 6.91026 5.99976 6.91026C6.10594 6.91026 6.2101 6.95345 6.28517 7.02853C6.36065 7.10364 6.40348 7.20784 6.40348 7.31398C6.40348 7.42012 6.36065 7.52432 6.28517 7.59939C6.2101 7.67447 6.10594 7.7177 5.99976 7.7177C5.89358 7.7177 5.78942 7.67451 5.71435 7.59939C5.63923 7.52432 5.59604 7.42012 5.59604 7.31398C5.59604 7.20784 5.63919 7.10368 5.71435 7.02853ZM3.51261 11.1964C3.84198 9.94772 5.53932 8.58893 5.75119 8.42331C5.89721 8.30913 6.10239 8.30905 6.24853 8.42331C6.46041 8.58897 8.1577 9.94772 8.48707 11.1964H3.51261Z" fill="#CB7640"/>
</g>
<defs>
<clipPath id="clip0_285_151">
<rect width="12" height="12" fill="#CB7640"/>
</clipPath>
</defs>
</svg>